<svg xmlns="http://www.w3.org/2000/svg" xmlns:xlink="http://www.w3.org/1999/xlink" version="1.1" x="0px" y="0px" viewBox="0 0 1000 1250" enable-background="new 0 0 1000 1000" xml:space="preserve"><g><path d="M474.926,666.087c-9.431-4.517-19.013-8.52-28.728-12.018v-23.095c0-5.522-4.477-10-10-10s-10,4.478-10,10v16.667   c-9.161-2.595-18.427-4.756-27.79-6.469v-18.943c0-5.522-4.477-10-10-10s-10,4.478-10,10v15.98   c-8.872-1.016-17.82-1.645-26.835-1.881v-25.42c0-5.522-4.477-10-10-10s-10,4.478-10,10v25.533   c-9.335,0.347-18.299,1.087-26.834,2.117v-27.65c0-5.522-4.477-10-10-10s-10,4.478-10,10v30.692   c-10.099,1.854-19.405,4.046-27.79,6.349v-17.572c0-5.522-4.477-10-10-10s-10,4.478-10,10v23.773   c-17.661,6.135-28.121,11.604-29.1,12.124l-5.309,2.819v64.193l13.379-4.803c6.99-2.51,14.003-4.796,21.03-6.901v29.627   c0,5.522,4.477,10,10,10s10-4.478,10-10v-35.077c9.249-2.257,18.517-4.147,27.79-5.702v21.313c0,5.522,4.477,10,10,10   s10-4.478,10-10v-24.137c8.951-1.011,17.898-1.678,26.834-2.028v26.165c0,5.522,4.477,10,10,10s10-4.478,10-10v-26.408   c9.418,0.156,18.38,0.682,26.835,1.475v36.253c0,5.522,4.477,10,10,10s10-4.478,10-10v-33.779   c10.311,1.587,19.613,3.511,27.79,5.515v37.011c0,5.522,4.477,10,10,10s10-4.478,10-10v-31.354   c12.642,4.091,19.697,7.447,20.006,7.598l14.402,7.073v-66.318L474.926,666.087z M222.54,705.102v-23.707   c3.347-1.519,8.216-3.601,14.409-5.921v25.263C232.138,702.104,227.334,703.554,222.54,705.102z M256.948,695.59v-26.775   c8.223-2.42,17.541-4.783,27.79-6.801v28.137C275.464,691.626,266.197,693.448,256.948,695.59z M304.738,687.5v-28.751   c8.508-1.105,17.473-1.91,26.834-2.286v29.095C322.635,685.89,313.687,686.542,304.738,687.5z M351.573,685.334v-28.993   c9.022,0.254,17.968,0.941,26.835,2.029v28.336C369.924,685.964,360.968,685.479,351.573,685.334z M398.408,689.014v-27.458   c9.372,1.842,18.641,4.15,27.79,6.943v25.661C417.872,692.255,408.575,690.476,398.408,689.014z M460.606,704.186   c-4.018-1.461-8.846-3.088-14.408-4.756v-24.004c4.84,1.882,9.645,3.896,14.408,6.054V704.186z"/><path d="M944.5,795.513v-20H644.291c1.231-4.186,2.258-8.43,3.068-12.742l0.172-0.916v-15.771l-0.139-0.824   c-0.199-1.185-0.421-2.354-0.654-3.516H876.5v-20H640.744c-8.561-21.241-22.686-38.251-37.198-53.601   c-1.991-2.106-4.039-4.191-6.126-6.262c6.769-1.641,13.463-3.522,20.071-5.645c34.193,26.545,77.101,42.374,123.641,42.374   c111.383,0,202-90.616,202-201.999c0-87.938-56.491-162.919-135.085-190.593c-12.935-48.505-38.43-92.974-74.875-129.42   c-54.597-54.597-127.187-84.664-204.397-84.664c-77.211,0-149.801,30.067-204.397,84.664   c-39.069,39.069-65.557,87.358-77.474,139.956C140.15,322.95,55.254,411.813,55.254,520.145c0,48.075,16.732,92.307,44.66,127.21   c-19.841,15.621-36.116,32.384-49.168,50.598c-11.133,15.537-17.72,30.689-19.576,45.036l-0.083,0.639v12.183l0.176,0.925   c6.354,33.454,26.724,57.559,47.789,78.624c38.802,38.802,90.278,69.153,153,90.213c35.445,11.896,70.512,17.927,104.229,17.927   c73.42,0,137.059-15.902,194.55-48.616c25.05-14.251,47.618-30.735,67.153-49.025h150.912v-20H616.932   c8.056-9.806,14.583-19.893,19.63-30.344H944.5z M546.772,692.287c-3.024-22.469-7.38-40.879-11.314-54.477   c8.286,5.408,16.149,11.037,23.566,16.866c2.609,6.233,10.396,26.572,14.578,56.39c4.568,32.572,5.614,83.395-14.857,141.646   c-7.894,5.948-16.168,11.633-24.804,17.028C554.095,796.451,552.339,733.651,546.772,692.287z M136.463,777.312   c3.183,30.796,10.714,62.248,22.405,93.813c-10.648-6.184-20.746-12.761-30.279-19.724   c-24.734-63.639-23.561-114.674-18.126-146.438c5.013-29.301,14.44-48.01,17.409-53.376c8.53-5.892,17.675-11.624,27.464-17.217   c-5.378,13.016-11.112,30.177-15.177,51.118C134.45,714.906,133.207,745.799,136.463,777.312z M176.546,600.762   c38.054-41.313,91.907-97.144,143.533-141.478c6.924,7.591,13.443,15.585,19.532,24.01c-25.294,16.844-36.334,53.853-42.541,81.449   C255.143,570.516,215.293,582.426,176.546,600.762z M649.503,429.257l8.237-20.445c2.304,4.202,4.451,8.5,6.427,12.893   l-22.484,26.923l15.352,12.82l15.21-18.213c1.094,3.583,2.085,7.209,2.961,10.881l-28.306,26.172l13.578,14.685l18.72-17.31   c0.442,4.28,0.746,8.601,0.887,12.963l-31.894,17.066l9.436,17.635l21.761-11.645c-0.46,4.955-1.111,9.855-1.959,14.689   l-34.495,6.377l3.636,19.666l25.78-4.766c-0.915,3.021-1.903,6.011-2.968,8.964l-32.855,1.513l0.92,19.979l23.127-1.064   c-1.49,2.947-3.059,5.848-4.7,8.702l-36.075-1.896l-1.049,19.973l24.29,1.276c-6.896,9.101-14.621,17.538-23.063,25.203   c-37.313-33.353-60.844-81.819-60.844-135.686c0-53.871,23.534-102.341,60.853-135.694c0.073,0.067,0.146,0.135,0.219,0.202   l-8.056,38.269l19.57,4.12l5.257-24.968c2.62,3.103,5.131,6.299,7.544,9.573l-13.566,33.669L649.503,429.257z M539.305,488.605   l-20.31,11.155l-67.345-47.242c-5.43-15.406-12.651-29.975-21.428-43.444l6.148-83.002l98.971-46.096l81.729,57.333   C571.636,372.773,541.711,427.213,539.305,488.605z M490.833,589.941c-1.237-0.031-2.474-0.081-3.71-0.126   c-10.533-4.345-21.323-8.216-32.36-11.606c5.48-18.411,8.437-37.897,8.437-58.064c0-8.196-0.5-16.276-1.443-24.225l0.05-0.039   c-0.021-0.028-0.044-0.054-0.065-0.082c-0.531-4.443-1.213-8.841-2.026-13.192l47.435,33.275L490.833,589.941z M437.235,473.62   c-17.809-10.476-36.036-11.161-50.102-9.063c-12.41,1.849-22.982,6.042-29.897,9.385c-6.826-9.638-14.15-18.78-21.956-27.421   c22.766-18.658,44.72-34.504,64.261-45.221C417.097,421.995,430.17,446.604,437.235,473.62z M526.355,262.099l-97.328,45.331   l-56.304-57.555l58.467-71.46l95.165,9.125V262.099z M416.525,323.249l-4.581,61.848c-28.875-32.621-68.01-55.951-112.303-64.89   l59.377-55.742L416.525,323.249z M312.443,344.03c27.584,8.352,52.449,23.016,72.907,42.31   c-19.861,11.438-41.671,27.354-64.058,45.735c-6.711-6.467-13.727-12.598-21.034-18.388c7.096-7.474,12.073-15.813,14.877-24.998   C320.214,372.054,317.041,356.066,312.443,344.03z M350.722,499.92c11.888,19.161,21.854,40.217,29.88,63.131   c-6.418-0.707-12.897-1.281-19.441-1.712l-27.905-0.021l-0.547,0.015c-4.877,0.268-9.72,0.622-14.538,1.044   C323.868,539.051,333.241,511.456,350.722,499.92z M402.6,566.053c-8.853-27.365-20.271-52.51-34.217-75.229   c5.467-2.44,13.083-5.201,21.697-6.484c20.703-3.084,38.297,3.48,52.389,19.501c0.475,5.374,0.73,10.811,0.73,16.306   c0,18.311-2.702,35.997-7.709,52.699C424.74,570.147,413.775,567.88,402.6,566.053z M596.262,641.485   c-25.061-7.548-70.258-35.82-86.16-46.049l17.039-77.332l12.523-6.879c3.627,50.481,25.887,95.88,59.921,129.348   C598.478,640.877,597.376,641.196,596.262,641.485z M633.694,643.419c1.72-1.599,3.42-3.228,5.09-4.897   c7.417-7.417,14.172-15.318,20.256-23.623l15.165,28.437l17.646-9.412l-20.373-38.198c2.19-3.845,4.24-7.761,6.165-11.733   l18.681,27.993l16.637-11.102l-26.15-39.186c0.749-2.192,1.475-4.395,2.146-6.615l20.287,22.887l14.967-13.266l-29.615-33.41   c1.082-6.247,1.865-12.571,2.357-18.955l27.542,16.399l10.232-17.186l-37.308-22.212c-0.197-5.574-0.615-11.108-1.262-16.592   l29.888,8.663l5.568-19.209l-39.283-11.385c-1.275-5.492-2.778-10.916-4.509-16.258l32.496,5.023l3.055-19.766l-43.945-6.793   c-2.928-6.385-6.191-12.622-9.794-18.683l33.354-5.363l-3.176-19.746l-42.462,6.827c-2.932-3.886-6.014-7.679-9.244-11.372   l29.241-10.178l-6.574-18.889l-33.597,11.694c29.492-20.597,65.335-32.699,103.956-32.699c36.984,0,71.42,11.099,100.172,30.126   c-1.432,1.238-2.842,2.507-4.242,3.789l-37.091-12.911l-6.574,18.889l28.178,9.809c-3.294,3.747-6.435,7.596-9.42,11.542   l-41.223-6.628l-3.176,19.746l32.082,5.158c-3.693,6.198-7.031,12.581-10.02,19.119l-42.448,6.562l3.055,19.766l31.033-4.797   c-1.745,5.41-3.261,10.902-4.54,16.465L739.129,462.2l5.568,19.209l28.45-8.246c-0.651,5.625-1.068,11.303-1.247,17.022   l-35.885,21.367l10.232,17.184l26.219-15.61c0.53,6.559,1.375,13.052,2.529,19.464l-28.464,32.113l14.967,13.266l19.261-21.73   c0.711,2.293,1.463,4.571,2.255,6.834l-25.232,37.811l16.637,11.102l17.878-26.79c1.965,3.989,4.067,7.916,6.303,11.774   l-19.708,36.954l17.646,9.412l14.576-27.332c5.873,7.902,12.365,15.43,19.454,22.519c3.473,3.472,7.064,6.779,10.741,9.96   c-28.753,19.029-63.19,30.13-100.178,30.13C700.978,678.611,663.826,665.53,633.694,643.419z M923.132,496.612   c0,56.935-26.286,107.838-67.351,141.236c-10.942-9.057-20.814-19.358-29.407-30.685l25.621-1.346l-1.049-19.973l-37.435,1.968   c-1.669-2.897-3.261-5.846-4.773-8.84l24.56,1.131l0.92-19.979l-34.269-1.577c-1.089-3.023-2.108-6.08-3.04-9.174l27.267,5.04   l3.635-19.666l-35.927-6.642c-0.87-5.006-1.547-10.078-2.001-15.213l23.234,12.433l9.436-17.635l-33.255-17.794   c0.163-4.512,0.499-8.979,0.984-13.403l19.982,18.477l13.578-14.685l-29.441-27.223c0.913-3.731,1.934-7.42,3.071-11.058   l16.236,19.441l15.351-12.82l-23.381-27.997c2.071-4.528,4.313-8.962,6.733-13.284l8.828,21.91l18.551-7.475l-14.054-34.878   c2.481-3.309,5.063-6.538,7.756-9.668l5.532,26.273l19.57-4.12l-8.275-39.306c1.79-1.603,3.609-3.174,5.461-4.707   C896.847,388.774,923.132,439.678,923.132,496.612z M785.19,299.466c-14.188-3.168-28.93-4.853-44.059-4.853   c-1.273,0-2.542,0.025-3.811,0.048l-10.585-62.291h26.207C766.622,252.933,777.541,275.476,785.19,299.466z M628.915,131.275   c43.065,17.332,80.643,45.493,109.355,81.095h-20.083l-89.272-65.969V131.275z M705.71,228.019l11.559,68.011   c-30.095,3.558-58.18,13.756-82.752,29.088l-88.161-61.845v-77.57l70.766-23.148L705.71,228.019z M528.774,111.935   c27.898,0,54.817,4.271,80.141,12.188v20.072l-73.685,24.104l-101.099-9.694l-9.141-25.838   C456.944,119.356,492.008,111.935,528.774,111.935z M406.769,141.225l8.757,24.751l-63.534,77.653l-63.861,59.952l-10.737-18.485   C301.279,222.695,347.75,171.379,406.769,141.225z M272.569,316.614c-1.653-0.107-3.312-0.194-4.976-0.261   c0.475-1.926,0.964-3.845,1.482-5.754L272.569,316.614z M259.227,336.172c9.577,0,18.982,0.737,28.169,2.155   c4.516,7.192,14.319,25.822,8.611,44.522c-2.089,6.843-6.104,13.131-12.005,18.843c-4.698-3.218-9.494-6.315-14.403-9.273   c-35.847-21.601-69.909-31.869-92.79-36.721C201.616,343.216,229.612,336.172,259.227,336.172z M150.646,371.73   c12.923,1.369,59.854,8.204,109.418,38.295c2.192,1.331,4.354,2.695,6.497,4.077c-6.273,3.391-13.479,6.48-21.613,9.264   c-5.997,1.094-46.059,8.552-86.782,20.021c-38.093,10.73-61.832,20.639-76.733,29.447   C92.382,431.725,117.242,396.235,150.646,371.73z M75.255,520.145c-0.001-5.444,0.251-10.832,0.717-16.159   c1.875-4.438,13.673-20.501,87.486-41.31c43.002-12.122,85.325-19.681,85.748-19.755l0.742-0.132l0.713-0.241   c13.185-4.453,24.457-9.751,33.8-15.862c7.519,5.733,14.707,11.805,21.533,18.245c-75.57,64.921-154.081,152.298-184.033,186.501   c-2.016,1.339-3.997,2.688-5.953,4.044C90.534,603.902,75.255,563.776,75.255,520.145z M51.088,753.902v-8.956   c1.544-10.87,6.896-22.759,15.915-35.345c8.319-11.609,18.117-22.612,29.497-33.104c-2.048,7.05-3.979,15.028-5.544,23.909   c-5.117,29.029-7.015,72.798,8.379,126.757c-2.081-1.96-4.132-3.939-6.14-5.947C75.858,803.88,56.913,782.972,51.088,753.902z    M238.418,906.611c-18.467-6.2-35.89-13.23-52.234-21.062c-36.501-84.455-34.673-152.636-26.598-195.17   c7.459-39.289,21.447-64.493,25.817-71.678c47.042-22.204,95.776-34.482,148.127-37.385h26.644   c55.468,3.688,104.42,17.101,148.943,40.879c3.361,8.512,12.817,34.868,17.944,73.588c5.686,42.938,7.016,110.21-18.306,188.333   c-51.633,26.817-106.833,39.381-172.474,39.381C304.733,923.498,271.807,917.816,238.418,906.611z M627.531,759.971   c-4.86,24.73-18.1,47.203-40.451,68.675c-0.125,0.12-0.253,0.237-0.378,0.356c12.328-49.624,10.761-92.42,6.581-121.594   c-1.398-9.756-3.145-18.549-4.982-26.264c0.235,0.247,0.478,0.491,0.712,0.739c15.996,16.918,33.453,37.341,38.519,65.894V759.971z   "/></g><text x="0" y="1015" fill="#000000" font-size="5px" font-weight="bold" font-family="'Helvetica Neue', Helvetica, Arial-Unicode, Arial, Sans-serif">Created by Creative Mania</text><text x="0" y="1020" fill="#000000" font-size="5px" font-weight="bold" font-family="'Helvetica Neue', Helvetica, Arial-Unicode, Arial, Sans-serif">from the Noun Project</text></svg>